<svg width="36" height="23" viewBox="0 0 36 23" fill="none" xmlns="http://www.w3.org/2000/svg">
<path d="M9.12 22.45C6.9 22.45 5.06 21.98 3.6 21.04C2.14 20.1 1.12 18.83 0.54 17.23L5.13 14.56C5.91 16.42 7.29 17.35 9.27 17.35C10.91 17.35 11.73 16.88 11.73 15.94C11.73 15.32 11.26 14.82 10.32 14.44C9.92 14.28 9.04 14.01 7.68 13.63C5.76 13.07 4.24 12.29 3.12 11.29C2 10.27 1.44 8.86 1.44 7.06C1.44 5.12 2.13 3.55 3.51 2.35C4.91 1.15 6.65 0.549999 8.73 0.549999C10.49 0.549999 12.05 0.959999 13.41 1.78C14.77 2.6 15.81 3.79 16.53 5.35L12.03 7.99C11.37 6.43 10.28 5.65 8.76 5.65C8.12 5.65 7.63 5.78 7.29 6.04C6.97 6.3 6.81 6.63 6.81 7.03C6.81 7.49 7.05 7.88 7.53 8.2C8.03 8.52 8.99 8.89 10.41 9.31C11.43 9.61 12.25 9.89 12.87 10.15C13.49 10.41 14.17 10.79 14.91 11.29C15.65 11.77 16.2 12.4 16.56 13.18C16.92 13.94 17.1 14.84 17.1 15.88C17.1 17.94 16.37 19.55 14.91 20.71C13.45 21.87 11.52 22.45 9.12 22.45ZM27.4223 16.96H35.5523V22H22.0523V0.999999H35.4023V6.01H27.4223V8.92H34.6523V13.87H27.4223V16.96Z" fill="#006ED3"/>
</svg>
